<?xml version="1.0" encoding="UTF-8" standalone="no"?>
<svg
   xmlns:dc="http://purl.org/dc/elements/1.1/"
   xmlns:cc="http://creativecommons.org/ns#"
   xmlns:rdf="http://www.w3.org/1999/02/22-rdf-syntax-ns#"
   xmlns:svg="http://www.w3.org/2000/svg"
   xmlns="http://www.w3.org/2000/svg"
   xmlns:sodipodi="http://sodipodi.sourceforge.net/DTD/sodipodi-0.dtd"
   xmlns:inkscape="http://www.inkscape.org/namespaces/inkscape"
   inkscape:version="1.0 (4035a4fb49, 2020-05-01)"
   sodipodi:docname="cotyledroit.svg"
   viewBox="0 0 210 297"
   height="297"
   width="210"
   xml:space="preserve"
   id="svg3796"
   version="1.1"><metadata
     id="metadata3802"><rdf:RDF><cc:Work
         rdf:about=""><dc:format>image/svg+xml</dc:format><dc:type
           rdf:resource="http://purl.org/dc/dcmitype/StillImage" /><dc:title /></cc:Work></rdf:RDF></metadata><defs
     id="defs3800" /><sodipodi:namedview
     inkscape:document-rotation="0"
     inkscape:current-layer="g3822"
     inkscape:window-maximized="1"
     inkscape:window-y="-9"
     inkscape:window-x="-9"
     inkscape:cy="85.323553"
     inkscape:cx="154.22218"
     inkscape:zoom="5.8786917"
     showgrid="false"
     id="namedview3798"
     inkscape:window-height="1001"
     inkscape:window-width="1920"
     inkscape:pageshadow="2"
     inkscape:pageopacity="0"
     guidetolerance="10"
     gridtolerance="10"
     objecttolerance="10"
     borderopacity="1"
     bordercolor="#666666"
     pagecolor="#ffffff"
     showguides="true"
     inkscape:guide-bbox="true"><sodipodi:guide
       position="124,213"
       orientation="0,1"
       id="guide11"
       inkscape:label=""
       inkscape:locked="false"
       inkscape:color="rgb(0,0,255)" /></sodipodi:namedview><g
     transform="matrix(1.3333333,0,0,-1.3333333,0,816)"
     inkscape:label="Contour Cupule T39-48"
     inkscape:groupmode="layer"
     id="g3804"><g
       transform="matrix(0.00128205,-0.37710323,-0.37710323,-0.00128205,91.971563,575.38527)"
       id="g3814"><path
         inkscape:connector-curvature="0"
         id="path3816"
         style="fill:none;stroke:#000000;stroke-width:0.709;stroke-linecap:butt;stroke-linejoin:miter;stroke-miterlimit:10;stroke-dasharray:none;stroke-opacity:1"
         d="m 0,0 0.1,8.6 1.1,8.5 1.7,6.5 2.3,6.3 m 125.4,0.3 2.9,-8.1 1.8,-8.5 0.7,-6.8 V 0 M 5.2,29.9 V 30 l 0.1,0.1 v 0.1 l 0.1,0.1 v 0.1 l 0.1,0.1 v 0.2 l 0.1,0.1 M 11.5,-2 h 0.3 0.2 l 0.2,0.2 0.2,0.1 0.2,0.2 0.1,0.2 0.1,0.2 0.1,0.2 M 30.7,46.9 30.2,46.6 29.6,46.2 29.1,45.9 28.6,45.5 28.2,45.1 27.7,44.7 27.3,44.2 26.8,43.8 M 43.7,54.1 H 43.5 43.3 L 43.1,54 h -0.2 l -0.2,-0.1 h -0.1 l -0.2,-0.1 -0.2,-0.1 m 51.5,0 -0.1,0.1 -0.2,0.1 H 93.2 L 93,54 h -0.1 l -0.2,0.1 h -0.2 -0.2 m 16.8,-10.3 -0.4,0.4 -0.4,0.5 -0.5,0.4 -0.5,0.4 -0.5,0.4 -0.5,0.3 -0.5,0.4 -0.5,0.3 m 17.8,-47.8 v -0.2 l 0.1,-0.2 0.2,-0.2 0.1,-0.2 0.2,-0.1 0.3,-0.2 h 0.2 0.3 m 5.9,32.8 v -0.1 -0.1 h 0.1 v -0.1 -0.1 h 0.1 V 30.3 30.2 M 47.5,68.5 45.6,67.9 43.7,67.2 41.9,66.5 40,65.7 l -1.8,-0.9 -1.8,-0.9 -1.7,-1 -1.8,-1 -1.7,-1 L 29.5,59.8 27.9,58.6 26.3,57.4 24.7,56.1 23.2,54.9 21.7,53.5 20.3,52.1 18.9,50.7 17.5,49.2 16.2,47.7 14.9,46.2 13.7,44.6 12.5,43 11.3,41.3 10.3,39.6 9.2,37.9 8.2,36.2 7.3,34.4 6.4,32.6 5.6,30.8 M 51.8,69.2 H 51.2 L 50.7,69.1 H 50.2 L 49.6,69 49.1,68.9 48.6,68.8 48,68.7 47.5,68.5 m 82.9,-37.7 -0.9,1.8 -0.8,1.8 -1,1.8 -1,1.7 -1,1.7 -1.1,1.7 -1.1,1.7 -1.2,1.6 -1.2,1.6 -1.3,1.5 -1.3,1.5 -1.4,1.5 -1.4,1.4 -1.5,1.4 -1.4,1.4 -1.6,1.2 -1.5,1.3 -1.6,1.2 -1.7,1.2 -1.7,1.1 -1.7,1 -1.7,1 -1.8,1 -1.8,0.9 -1.8,0.9 -1.8,0.8 -1.9,0.7 -1.9,0.7 -1.9,0.6 m 0,0 -0.5,0.2 -0.5,0.1 -0.5,0.1 -0.6,0.1 -0.5,0.1 h -0.5 l -0.6,0.1 h -0.5" /></g><g
       transform="matrix(0.60406881,0,0,0.60406881,107.58103,505.00719)"
       id="g3822"><path
         inkscape:connector-curvature="0"
         id="path3824"
         style="fill:none;stroke:#000000;stroke-width:0.442611;stroke-linecap:round;stroke-linejoin:round;stroke-miterlimit:10;stroke-dasharray:none;stroke-opacity:1"
         d="m -47.066759,43.269032 -1.689568,1.180386 m -20.112564,21.531683 -0.05709,16.792916 m 8.238237,-17.701521 -0.06027,17.729324 m 36.167905,30.21322 -1.260429,3.49168 m 1.272952,-7.17488 -0.01252,3.6832 m -0.671205,-4.55952 -22.02428,-3.75812 m -1.681714,-1.12943 -4.169464,-3.884701 m -1.926966,-2.44124 -4.220642,-7.19356 m -0.231032,-5.494442 -0.0155,4.557185 m 0.0155,-4.557185 -1.248544,-0.0042 m 0,0 0.0059,-1.747962 m 0.06027,-17.729325 0.0059,-1.747961 m 0,0 1.248543,0.0042 m 0.0155,-4.557185 -0.0155,4.557185 m 0.268174,-5.430272 4.269669,-7.227123 m 1.943308,-2.365655 4.195781,-3.856266 m 1.689567,-1.180387 22.049323,-3.608285 m 0.701981,-4.492423 -0.01231,3.620777 m -44.602462,45.233461 0.0042,-1.248544 m 0.05709,-16.792916 0.0074,-2.184952 m 43.30956,-32.190422 1.236447,3.562596 m -24.641859,68.399652 1.681714,1.12942" /></g></g></svg>
