<?xml version="1.0" encoding="UTF-8" standalone="no"?>
<svg
   xmlns:dc="http://purl.org/dc/elements/1.1/"
   xmlns:cc="http://creativecommons.org/ns#"
   xmlns:rdf="http://www.w3.org/1999/02/22-rdf-syntax-ns#"
   xmlns:svg="http://www.w3.org/2000/svg"
   xmlns="http://www.w3.org/2000/svg"
   xmlns:sodipodi="http://sodipodi.sourceforge.net/DTD/sodipodi-0.dtd"
   xmlns:inkscape="http://www.inkscape.org/namespaces/inkscape"
   inkscape:version="1.0 (4035a4fb49, 2020-05-01)"
   sodipodi:docname="taille1tete28coteGauche.svg"
   id="svg115"
   version="1.1"
   height="1122.5196850393702"
   width="793.7007874015749"
   viewBox="0 0 793.7007874015749 1122.5196850393702">
  <metadata
     id="metadata119">
    <rdf:RDF>
      <cc:Work
         rdf:about="">
        <dc:format>image/svg+xml</dc:format>
        <dc:type
           rdf:resource="http://purl.org/dc/dcmitype/StillImage" />
        <dc:title></dc:title>
      </cc:Work>
    </rdf:RDF>
  </metadata>
  <sodipodi:namedview
     inkscape:guide-bbox="true"
     showguides="true"
     inkscape:current-layer="g111"
     inkscape:window-maximized="1"
     inkscape:window-y="-9"
     inkscape:window-x="-9"
     inkscape:cy="406.7582"
     inkscape:cx="500.17375"
     inkscape:zoom="0.71357325"
     showgrid="false"
     id="namedview117"
     inkscape:window-height="1001"
     inkscape:window-width="1920"
     inkscape:pageshadow="2"
     inkscape:pageopacity="0"
     guidetolerance="10"
     gridtolerance="10"
     objecttolerance="10"
     borderopacity="1"
     bordercolor="#666666"
     pagecolor="#ffffff">
    <sodipodi:guide
       inkscape:color="rgb(0,0,255)"
       inkscape:locked="false"
       inkscape:label=""
       id="guide121"
       orientation="0,1"
       position="468.66142,805.03934" />
  </sodipodi:namedview>
  <defs
     id="defs23">
    <marker
       style="overflow:visible"
       refY="0.0"
       refX="0.0"
       orient="auto"
       id="DistanceX">
      <path
         id="path10"
         style="stroke:#000000; stroke-width:0.5"
         d="M 3,-3 L -3,3 M 0,-5 L  0,5" />
    </marker>
    <pattern
       y="0"
       x="0"
       height="8"
       width="8"
       patternUnits="userSpaceOnUse"
       id="Hatch">
      <path
         id="path13"
         linecap="square"
         stroke-width="0.25"
         stroke="#000000"
         d="M8 4 l-4,4" />
      <path
         id="path15"
         linecap="square"
         stroke-width="0.25"
         stroke="#000000"
         d="M6 2 l-4,4" />
      <path
         id="path17"
         linecap="square"
         stroke-width="0.25"
         stroke="#000000"
         d="M4 0 l-4,4" />
    </pattern>
    <symbol
       id="*Model_Space" />
    <symbol
       id="*Paper_Space" />
    <symbol
       id="*Paper_Space0" />
  </defs>
  <g
     id="g111"
     inkscape:label="0"
     inkscape:groupmode="layer">
    <path
       id="path25"
       style="fill:none;stroke:#000000;stroke-linecap:round"
       d="m 613.18766,209.71976 a 22.677165,22.677165 0 0 0 -15.00705,7.42797" />
    <path
       id="path27"
       style="fill:none;stroke:#000000;stroke-linecap:round"
       d="m 571.73121,246.52277 a 37.795276,37.795276 0 0 0 -6.80931,10.7743" />
    <path
       id="path29"
       style="fill:none;stroke:#000000;stroke-linecap:round"
       d="m 532.13468,327.25974 a 377.43101,377.43101 0 0 0 -3.26675,6.46472" />
    <path
       id="path31"
       style="fill:none;stroke:#000000;stroke-linecap:round"
       d="m 523.95651,344.07295 a 377.43101,377.43101 0 0 0 -2.96028,6.65937" />
    <path
       id="path33"
       style="fill:none;stroke:#000000;stroke-linecap:round"
       d="m 516.76526,360.90815 a 377.43101,377.43101 0 0 0 -1.93067,4.94236" />
    <path
       id="path35"
       style="fill:none;stroke:#000000;stroke-linecap:round"
       d="m 512.54099,224.07613 a 37.795276,37.795276 0 0 0 27.078,-9.66559" />
    <path
       id="path37"
       style="fill:none;stroke:#000000;stroke-linecap:round"
       d="m 568.99402,187.96114 a 22.677165,22.677165 0 0 0 7.42797,-15.00705" />
    <path
       id="path39"
       style="fill:none;stroke:#000000;stroke-linecap:round"
       d="m 615.10822,171.05243 a 0.0189,0.0189 0 1 0 -0.0378,0 0.0189,0.0189 0 1 0 0.0378,0 z" />
    <path
       id="path41"
       style="fill:none;stroke:#000000;stroke-linecap:round"
       d="m 605.75437,180.40628 a 0.0189,0.0189 0 1 0 -0.0378,0 0.0189,0.0189 0 1 0 0.0378,0 z" />
    <path
       id="path43"
       style="fill:none;stroke:#000000;stroke-linecap:round"
       d="m 553.05992,291.72162 -15.25624,24.99526" />
    <path
       id="path45"
       style="fill:none;stroke:#000000;stroke-linecap:round"
       d="m 468.66392,224.12232 43.87707,-0.0462" />
    <path
       id="path47"
       style="fill:none;stroke:#000000;stroke-linecap:round"
       d="m 642.38957,177.45349 v -2.67253" />
    <path
       id="path49"
       style="fill:none;stroke:#000000;stroke-linecap:round"
       d="m 642.38957,177.45349 -29.20191,32.26627" />
    <path
       id="path51"
       style="fill:none;stroke:#000000;stroke-linecap:round"
       d="m 598.18061,217.14773 -26.4494,29.37504" />
    <path
       id="path53"
       style="fill:none;stroke:#000000;stroke-linecap:round"
       d="m 537.80368,316.71688 h -5.669" />
    <path
       id="path55"
       style="fill:none;stroke:#000000;stroke-linecap:round"
       d="m 532.13468,316.71688 -10e-6,10.54387" />
    <path
       id="path57"
       style="fill:none;stroke:#000000;stroke-linecap:round"
       d="m 528.86846,333.72473 -4.91195,2e-5" />
    <path
       id="path59"
       style="fill:none;stroke:#000000;stroke-linecap:round"
       d="m 523.95651,333.72475 -2e-5,10.3496" />
    <path
       id="path61"
       style="fill:none;stroke:#000000;stroke-linecap:round"
       d="m 520.9968,350.73257 -4.23154,6e-5" />
    <path
       id="path63"
       style="fill:none;stroke:#000000;stroke-linecap:round"
       d="m 516.76526,350.73263 -10e-6,10.17708" />
    <path
       id="path65"
       style="fill:none;stroke:#000000;stroke-linecap:round"
       d="m 511.16957,365.85074 3.66545,-7e-5" />
    <path
       id="path67"
       style="fill:none;stroke:#000000;stroke-linecap:round"
       d="m 511.16988,375.85224 -3.1e-4,-10.0015" />
    <path
       id="path69"
       style="fill:none;stroke:#000000;stroke-linecap:round"
       d="m 470.94729,715.46458 h -2.77844" />
    <path
       id="path71"
       style="fill:none;stroke:#000000;stroke-linecap:round"
       d="m 446.92979,481.13387 11.81148,225.3764" />
    <path
       id="path73"
       style="fill:none;stroke:#000000;stroke-linecap:round"
       d="m 539.61899,214.41054 29.37514,-26.4495" />
    <path
       id="path75"
       style="fill:none;stroke:#000000;stroke-linecap:round"
       d="m 576.42199,172.95409 32.26627,-29.2019" />
    <path
       id="path77"
       style="fill:none;stroke:#000000;stroke-linecap:round"
       d="m 611.36079,143.75219 h -2.67253" />
    <path
       id="path79"
       style="fill:none;stroke:#000000;stroke-linecap:round"
       d="M 642.38957,174.78096 611.36079,143.75219" />
    <path
       id="path81"
       style="fill:none;stroke:#000000;stroke-dasharray:48, 9.6, 9.6, 9.6"
       d="M 469.55807,715.46458 468.44402,220.98835" />
    <path
       id="path83"
       style="fill:none;stroke:#000000;stroke-dasharray:48, 9.6, 9.6, 9.6"
       d="M 626.87518,159.26657 439.75601,346.38573" />
    <path
       id="path85"
       style="fill:none;stroke:#000000;stroke-linecap:round"
       d="m 478.48769,708.30112 6.66674,-127.21366 5.23814,-99.95359" />
    <path
       id="path87"
       style="fill:none;stroke:#000000;stroke-linecap:round"
       d="m 560.1286,264.86871 3.00313,-4.04129 1.79017,-3.53035" />
    <path
       id="path89"
       style="fill:none;stroke:#000000;stroke-linecap:round"
       d="m 553.05991,291.72162 0.7578,-15.94627 6.31093,-10.90664" />
    <path
       id="path91"
       style="fill:none;stroke:#000000;stroke-linecap:round"
       d="m 511.16986,375.85224 -15.41809,58.71112 -5.3592,46.57051" />
    <path
       id="path93"
       style="fill:none;stroke:#000000;stroke-linecap:round"
       d="m 470.94729,715.46458 5.69711,-2.59869 1.8433,-4.56477" />
    <path
       id="path95"
       style="fill:none;stroke:#000000;stroke-linecap:round"
       d="m 458.74127,706.51027 3.61016,6.94598 5.81742,2.00833" />
    <path
       id="path97"
       style="fill:none;stroke:#000000;stroke-linecap:round"
       d="m 441.87339,352.16963 0.20833,36.10348 1.85999,36.11381 2.98808,56.74695" />
    <path
       id="path99"
       style="fill:none;stroke:#000000;stroke-linecap:round"
       d="m 457.42624,233.97782 -8.69802,66.18856 -6.85484,52.00325" />
    <path
       id="path101"
       style="fill:none;stroke:#000000;stroke-linecap:round"
       d="m 457.42624,233.97782 4.5281,-7.65464 6.70958,-2.20086" />
    <path
       id="path103"
       style="fill:#ff0000;stroke:none"
       inkscape:dxfpoint="1"
       d="m 468.66142,317.48032 2.9375,-6.34375 0.8125,1.90625 6.84375,-6.84375 v 0 l 0.6875,0.6875 -6.84375,6.84375 1.90625,0.8125 z" />
    <path
       id="path105"
       style="fill:#ff0000;stroke:none"
       inkscape:dxfpoint="1"
       d="m 615.08932,171.05243 2.9375,-6.34375 0.8125,1.90625 6.84375,-6.84375 v 0 l 0.6875,0.6875 -6.84375,6.84375 1.90625,0.8125 z" />
    <path
       id="path107"
       style="fill:#ff0000;stroke:none"
       inkscape:dxfpoint="1"
       d="m 605.73547,180.40628 2.9375,-6.34375 0.8125,1.90625 6.84375,-6.84375 v 0 l 0.6875,0.6875 -6.84375,6.84375 1.90625,0.8125 z" />
    <path
       id="path109"
       style="fill:#ff0000;stroke:none"
       inkscape:dxfpoint="1"
       d="m 624.44318,161.69858 2.9375,-6.34375 0.8125,1.90625 6.84375,-6.84375 v 0 l 0.6875,0.6875 -6.84375,6.84375 1.90625,0.8125 z" />
  </g>
  <desc
     id="desc113">Contour Tige fem taille1 tête 28.DXF - scale = 1.000000, origin = (0.000000, 0.000000), method = manual</desc>
</svg>
